<svg version="1.1" xmlns="http://www.w3.org/2000/svg" width="768" height="768" viewBox="0 0 768 768">
<path d="M379.5 288h4.5q39 0 67.5 28.5t28.5 67.5v6zM241.5 313.5q-18 36-18 70.5 0 66 47.25 113.25t113.25 47.25q34.5 0 70.5-18l-49.5-49.5q-12 3-21 3-39 0-67.5-28.5t-28.5-67.5q0-9 3-21zM64.5 136.5l40.5-40.5 567 567-40.5 40.5q-7.5-7.5-47.25-46.5t-60.75-60q-64.5 27-139.5 27-118.5 0-214.5-66t-138-174q16.5-39 51.75-86.25t68.25-72.75q-18-18-50.25-51t-36.75-37.5zM384 223.5q-30 0-58.5 12l-69-69q58.5-22.5 127.5-22.5 118.5 0 213.75 66t137.25 174q-36 88.5-109.5 151.5l-93-93q12-28.5 12-58.5 0-66-47.25-113.25t-113.25-47.25z"></path>
</svg>
