 <svg version="1.1" xmlns="http://www.w3.org/2000/svg" width="541" height="512" viewBox="0 0 541 512">
    <path fill="#000" d="M103.306 228.483l129.493-125.249c-17.662-4.272-31.226-18.148-34.98-35.663l-0.055-0.307-129.852 125.248c17.812 4.15 31.53 18.061 35.339 35.662l0.056 0.308z"></path>
    <path fill="#000" d="M459.052 393.010c-13.486-8.329-22.346-23.018-22.373-39.779v-0.004c-0.053-0.817-0.082-1.772-0.082-2.733s0.030-1.916 0.089-2.863l-0.007 0.13-149.852 71.94c9.598 8.565 15.611 20.969 15.611 34.779 0 0.014 0 0.029 0 0.043v-0.002c-0.048 5.164-0.94 10.104-2.544 14.711l0.098-0.322z"></path>
    <path fill="#000" d="M290.207 57.553c-0.009 15.55-7.606 29.324-19.289 37.819l-0.135 0.093 118.054 46.69c-0.216-1.608-0.346-3.48-0.36-5.379v-0.017c0.033-16.948 9.077-31.778 22.596-39.953l0.209-0.118-122.298-48.056c0.659 2.633 1.098 5.693 1.221 8.834l0.002 0.087z"></path>
    <path fill="#000" d="M241.36 410.132l-138.629-160.067c-4.734 17.421-18.861 30.61-36.472 33.911l-0.29 0.045 143.881 166.255c1.668-18.735 14.197-34.162 31.183-40.044l0.327-0.099z"></path>
    <path fill="#000" d="M243.446 115.105c-31.785 0-57.553-25.767-57.553-57.553s25.767-57.553 57.553-57.553c31.785 0 57.552 25.767 57.552 57.553v0c0 31.786-25.767 57.553-57.553 57.553v0zM243.446 21.582c-19.866 0-35.97 16.105-35.97 35.97s16.105 35.97 35.97 35.97c19.866 0 35.97-16.105 35.97-35.97v0c0-19.866-16.104-35.97-35.97-35.97v0z"></path>
    <path fill="#000" d="M483.224 410.78c-31.786 0-57.553-25.767-57.553-57.553s25.767-57.553 57.553-57.553c31.786 0 57.552 25.767 57.552 57.553v0c0 31.786-25.767 57.553-57.553 57.553v0zM483.224 317.257c-19.866 0-35.97 16.104-35.97 35.97s16.105 35.97 35.97 35.97c19.866 0 35.97-16.105 35.97-35.97v0c0-19.866-16.105-35.97-35.97-35.97v0z"></path>
    <path fill="#000" d="M57.553 295.531c-31.785 0-57.553-25.767-57.553-57.553s25.767-57.553 57.553-57.553c31.785 0 57.553 25.767 57.553 57.553v0c0 31.786-25.767 57.553-57.553 57.553v0zM57.553 202.008c-19.866 0-35.97 16.105-35.97 35.97s16.105 35.97 35.97 35.97c19.866 0 35.97-16.105 35.97-35.97v0c-0.041-19.835-16.13-35.898-35.97-35.898 0 0 0 0 0 0v0z"></path>
    <path fill="#000" d="M256.036 512.072c-31.786 0-57.553-25.767-57.553-57.553s25.767-57.553 57.553-57.553c31.786 0 57.553 25.767 57.553 57.553v0c0 31.786-25.767 57.553-57.553 57.553v0zM256.036 418.55c-19.866 0-35.97 16.104-35.97 35.97s16.105 35.97 35.97 35.97c19.866 0 35.97-16.105 35.97-35.97v0c0-19.866-16.105-35.97-35.97-35.97v0z"></path>
    <path fill="#000" d="M435.24 194.239c-31.786 0-57.553-25.767-57.553-57.553s25.767-57.553 57.553-57.553c31.786 0 57.553 25.767 57.553 57.553v0c0 31.785-25.767 57.553-57.553 57.553v0zM435.24 100.716c-19.866 0-35.97 16.105-35.97 35.97s16.105 35.97 35.97 35.97c19.866 0 35.97-16.105 35.97-35.97v0c0-19.866-16.105-35.97-35.97-35.97v0z"></path>
</svg>